<svg xmlns="http://www.w3.org/2000/svg" viewBox="0 0 200 300" fill="none">
  <!-- Background -->
  <rect width="200" height="300" fill="#F5F5F5"/>

  <!-- Wine bottle silhouette -->
  <path d="M85 280 L85 180 Q85 160 75 140 L75 60 Q75 50 85 50 L115 50 Q125 50 125 60 L125 140 Q115 160 115 180 L115 280 Z" fill="#2D1F14"/>

  <!-- Bottle neck -->
  <rect x="90" y="20" width="20" height="35" fill="#2D1F14"/>

  <!-- Cork -->
  <rect x="92" y="10" width="16" height="15" fill="#8B7355" rx="2"/>

  <!-- Label area -->
  <rect x="78" y="190" width="44" height="60" fill="#F8F4E8" rx="2"/>

  <!-- Wine glass icon on label -->
  <path d="M95 200 L95 215 Q90 220 90 230 L110 230 Q110 220 105 215 L105 200 Z" fill="#722F37" opacity="0.3"/>
  <ellipse cx="100" cy="200" rx="10" ry="4" fill="#722F37" opacity="0.3"/>

  <!-- Decorative line on label -->
  <line x1="83" y1="240" x2="117" y2="240" stroke="#2D1F14" stroke-width="0.5"/>

  <!-- Text placeholder -->
  <text x="100" y="255" font-family="serif" font-size="8" fill="#2D1F14" text-anchor="middle">VINO</text>
</svg>
